<svg width="40" height="42" viewBox="0 0 40 42" fill="none" xmlns="http://www.w3.org/2000/svg">
<path d="M23.7895 14.3441H16.1861L12.3682 21.0689L16.1687 27.7248H23.7883L27.5888 21.0689L23.7895 14.3441ZM22.7752 25.9001H17.1794L14.3932 21.0511L17.1817 16.1511H22.7775L25.5661 21.0511L22.7752 25.9001Z" fill="#141A1F"/>
<path d="M14.3916 21.0676L17.1802 25.9H22.776L25.5821 21.0676L22.776 16.1H17.1802L14.3916 21.0676Z" fill="#E83030"/>
<path d="M23.7895 28.6372H16.1861L12.3682 35.3442L16.1687 42.0001H23.7883L27.5888 35.3442L23.7895 28.6372ZM22.7752 40.2442H17.1794L14.3932 35.3952L17.1817 30.4952H22.7775L25.5661 35.3952L22.7752 40.2442Z" fill="#141A1F"/>
<path d="M14.3916 35.3441L17.1802 40.2441H22.776L25.5821 35.3441L22.776 30.4441H17.1802L14.3916 35.3441Z" fill="#6B91C7"/>
<path d="M23.7895 0H16.1861L12.3682 6.72475L16.1861 13.3807H23.8058L27.6063 6.72475L23.7895 0ZM22.7752 11.5559H17.1794L14.3932 6.70696L17.1817 1.75712H22.7775L25.5661 6.65713L22.7752 11.5559Z" fill="#141A1F"/>
<path d="M14.3916 6.72337L17.1802 11.5557H22.776L25.5821 6.72337L22.776 1.75574H17.1802L14.3916 6.72337Z" fill="#F9C31F"/>
<path d="M36.1586 21.5411H28.6159L24.8154 28.2659L28.6159 34.9218H36.2356L40.036 28.2659L36.1586 21.5411ZM35.1444 33.1256H29.5486L26.76 28.2766L29.5486 23.3766H35.1444L37.9329 28.2766L35.1444 33.1256Z" fill="#141A1F"/>
<path d="M26.747 28.2906L29.5757 33.1396H35.1561L38.0123 28.2906L35.1561 23.323H29.5757L26.747 28.2906Z" fill="#795AA5"/>
<path d="M36.1586 7.19702H28.6159L24.8154 13.853L28.6159 20.5089H36.2356L40.036 13.853L36.1586 7.19702ZM35.1444 18.7696H29.5486L26.76 13.9206L29.5486 9.02058H35.1444L37.9329 13.9206L35.1444 18.7696Z" fill="#141A1F"/>
<path d="M26.7471 13.9237L29.5309 18.8381H35.1562L38.0124 13.9891L35.1562 9.02149L29.5309 9.02148L26.7471 13.9237Z" fill="#F17423"/>
<path d="M11.3548 21.5411H3.80049L0 28.2658L3.80049 34.9218H11.4201L15.2206 28.2658L11.3548 21.5411ZM10.3406 33.1148H4.8124L2.02382 28.2658L4.8124 23.3658H10.4082L13.1968 28.2658L10.3406 33.1148Z" fill="#141A1F"/>
<path d="M2.02344 28.2646L4.81202 33.1136H10.3402L13.1964 28.2646L10.3402 23.297H4.81202L2.02344 28.2646Z" fill="#97C639"/>
<path d="M11.3548 7.19702H3.80049L0 13.853L3.80049 20.5089H11.4201L15.2206 13.853L11.3548 7.19702ZM10.3406 18.7708H4.8124L2.02382 13.9218L4.8124 9.02177H10.4082L13.1968 13.9218L10.3406 18.7708Z" fill="#141A1F"/>
<path d="M2.02344 13.9204L4.81202 18.7694H10.3402L13.1964 13.9204L10.3402 8.95276H4.81202L2.02344 13.9204Z" fill="#C9DB70"/>
</svg>
