<svg xmlns="http://www.w3.org/2000/svg" viewBox="0 0 508 491.952"><g fill="none"><path fill="#326CE5" d="M446.143 121.164c-2.66-8.51-9.043-15.425-17.021-19.68l-162.23-77.658c-4.256-2.127-9.043-2.66-13.298-2.66s-9.042 0-13.297 1.064l-162.23 78.19c-7.979 3.723-13.83 10.638-15.957 19.68L21.685 295.096c-1.596 9.042.532 18.085 5.85 25.531l112.232 138.827c6.383 6.382 15.425 10.638 24.468 11.17h179.25c9.575 1.063 18.617-3.192 24.468-11.17l112.231-138.827c5.32-7.446 7.447-16.489 6.383-25.531z"/><path fill="#FFF" d="M253.594 0c8.146 0 15.61 1.317 22.437 4.734l162.23 77.658.822.415c12.98 6.923 22.955 18.259 27.263 32.044l.235.753 40.87 175.848.138 1.17c1.612 13.707-1.536 27.377-9.12 38.77l-1.427 2.052-112.465 139.112-.538.712c-9.675 12.358-24.23 19.308-39.682 18.64l-1.833-.122-178.911.004-.621-.036c-14.174-.834-28.106-7.247-38.192-17.333l-.79-.79L10.679 333.443l-.367-.514C1.677 320.84-1.74 306.037.84 291.418l.221-1.086 40.445-175.08c3.455-14.685 12.93-26.614 25.914-33.19l165.64-79.84 2.103-.526C238.55.849 241.978.389 245.703.17c1.886-.111 3.392-.152 5.695-.165zm0 21.167c-4.255 0-9.042 0-13.297 1.063l-162.23 78.19c-7.979 3.723-13.83 10.638-15.957 19.68L21.685 295.096c-1.596 9.042.532 18.085 5.85 25.531l112.232 138.827c6.383 6.382 15.425 10.638 24.468 11.17h179.25c9.575 1.063 18.617-3.192 24.468-11.17l112.231-138.827c5.32-7.446 7.447-16.489 6.383-25.531l-40.424-173.932c-2.66-8.51-9.043-15.425-17.021-19.68l-162.23-77.658c-4.256-2.127-9.043-2.66-13.298-2.66m97.74 386.003c5.252 10.77.78 23.758-9.99 29.01s-23.758.781-29.01-9.989c-5.254-10.77-.781-23.758 9.988-29.01s23.759-.78 29.011 9.989m-165.657-9.99c10.77 5.253 15.242 18.242 9.99 29.011-5.253 10.77-18.242 15.242-29.011 9.99-10.77-5.253-15.242-18.242-9.99-29.011 5.253-10.77 18.242-15.242 29.011-9.99m76.263-286.948-.003 29.2c31.364 2.074 59.393 16.346 79.387 38.117l21.684-17.563a35.7 35.7 0 0 0 3.69 5.538 35.5 35.5 0 0 0 6.766 6.42l-22.206 17.984c13.41 19.208 21.275 42.573 21.275 67.776 0 6.355-.5 12.593-1.463 18.678l24.782 5.717a36 36 0 0 0-1.508 4.901 35.4 35.4 0 0 0-.8 10.864l-26.006-6.003c-8.828 29.383-28.75 53.965-54.9 68.88l10.52 21.556a35.6 35.6 0 0 0-6.867 2.518 35.5 35.5 0 0 0-7.267 4.712l-10.668-21.868c-13.701 5.532-28.673 8.578-44.356 8.578s-30.655-3.046-44.356-8.578l-10.668 21.868a35.5 35.5 0 0 0-7.267-4.712 35.6 35.6 0 0 0-6.87-2.519l10.517-21.559c-26.147-14.914-46.067-39.495-54.894-68.876l-26.006 6.003c.29-3.551.044-7.207-.8-10.864a36 36 0 0 0-1.508-4.901l24.782-5.717a119.4 119.4 0 0 1-1.463-18.678c0-25.205 7.867-48.572 21.279-67.78l-22.209-17.98a35.5 35.5 0 0 0 6.765-6.42 35.7 35.7 0 0 0 3.69-5.538l21.684 17.563c19.994-21.77 48.023-36.043 79.387-38.117l-.003-29.2c2.553.584 5.21.893 7.94.893 2.184 0 4.321-.198 6.396-.575zM254 156.104l-2.78.037-2.59.103c-26.812 1.396-50.873 13.187-68.23 31.419l-.53.562-2.363 2.609a102 102 0 0 0-1.834 2.155l-2.21 2.768a102 102 0 0 0-3.39 4.669c-11.151 16.308-17.673 36.032-17.673 57.278 0 4.827.337 9.575.988 14.222l.09.636.586 3.551.533 2.708.765 3.32-.078-.308.235.95a101 101 0 0 0 1.422 5.047c7.376 23.793 23.263 43.845 44.101 56.597l1.757 1.052a101 101 0 0 0 5.448 2.964l2.797 1.36.605.278 2.202.978.846.36 2.05.838c11.535 4.548 24.102 7.047 37.253 7.047 13.061 0 25.547-2.465 37.017-6.954l3.139-1.29 2.52-1.127 1.438-.68 1.427-.703 2.373-1.242 2.822-1.56c21.271-12.284 37.676-32.055 45.611-55.712l.647-1.996a101 101 0 0 0 2.34-8.896l.603-3.034.574-3.478a102.4 102.4 0 0 0 1.089-14.928c0-20.451-6.043-39.491-16.44-55.432l-1.102-1.654a102 102 0 0 0-3.568-4.921l-2.106-2.625-1.185-1.423a102 102 0 0 0-2.907-3.251c-16.954-18.166-40.494-30.109-66.817-32.023l-2.402-.146-2.515-.093zm179.77 117.732c11.675 2.695 18.955 14.345 16.26 26.02-2.696 11.675-14.346 18.955-26.02 16.26-11.676-2.696-18.956-14.346-16.26-26.02 2.695-11.676 14.345-18.956 26.02-16.26m-333.52 16.26c2.695 11.674-4.584 23.324-16.26 26.02-11.675 2.695-23.324-4.585-26.02-16.26s4.585-23.325 16.26-26.02 23.324 4.584 26.02 16.26m211.127-63.336c4.163 0 7.642.612 10.44 1.845q4.194 1.845 6.765 4.796 2.558 2.937 3.707 6.52.579 1.807.919 3.581c.452 2.366-.842 4.19-3.367 4.19h-4.17c-2.175 0-3.607-1.153-4.165-3.044l-.038-.14a12 12 0 0 0-.743-2.19q-.882-1.923-2.276-3.162a9.1 9.1 0 0 0-3.188-1.849 12 12 0 0 0-3.884-.614q-1.904 0-3.767.386-1.813.375-3.215 1.214a6.5 6.5 0 0 0-2.186 2.112c-.534.84-.804 1.883-.804 3.145 0 1.445.418 2.633 1.26 3.598q1.356 1.556 3.594 2.737 2.303 1.215 5.282 2.19l4.118 1.365q1.044.35 2.101.71a85 85 0 0 1 6.269 2.413q3.14 1.354 5.592 3.326a15.9 15.9 0 0 1 4.023 4.808c1.039 1.9 1.556 4.16 1.556 6.772q0 4.707-1.751 8.264a16.34 16.34 0 0 1-4.883 5.911q-3.102 2.334-7.32 3.515-4.185 1.173-9.15 1.172-4.496 0-8.728-1.573a23.8 23.8 0 0 1-7.583-4.551q-3.349-2.982-5.424-7.204c-.921-1.873-1.555-3.907-1.908-6.12l-.03-.232c-.24-2.4 1.085-4.043 3.627-4.043h4.02c2.098 0 3.397.763 3.953 2.283l.097.283.129.572.093.484.236.82c.22.738.407 1.307.534 1.616q.981 2.384 2.571 4.096a11 11 0 0 0 3.705 2.624q2.125.927 4.707.927 2.319 0 4.447-.487 2.075-.476 3.638-1.533a7.7 7.7 0 0 0 2.451-2.705q.913-1.653.915-4.12c0-1.413-.416-2.57-1.254-3.506q-1.356-1.516-3.595-2.678-2.304-1.195-5.283-2.148a448 448 0 0 1-6.2-2.034 76 76 0 0 1-6.254-2.416q-3.14-1.375-5.591-3.37a16 16 0 0 1-4.023-4.873q-1.554-2.89-1.553-6.893c0-2.718.535-5.134 1.608-7.238 1.07-2.1 2.582-3.867 4.527-5.294q2.89-2.12 6.854-3.194 3.928-1.064 8.595-1.064m-131.187 1.177 5.714.002a2.59 2.59 0 0 1 2.59 2.587l.042 45.566a1.79 1.79 0 0 0 1.79 1.788l24.309.002a2.593 2.593 0 0 1 2.583 2.412l.007.189-.024 5.339a2.59 2.59 0 0 1-2.59 2.578H180.19a2.59 2.59 0 0 1-2.59-2.59v-55.283a2.59 2.59 0 0 1 2.59-2.59m41.032 0c1.671 0 3.126 1.153 3.529 2.794l8.182 33.292c.092.372.46.596.821.505a.69.69 0 0 0 .486-.47l10.127-33.515a3.64 3.64 0 0 1 3.477-2.606h4.276a3.64 3.64 0 0 1 3.476 2.603l10.057 33.193c.111.366.49.57.846.459.226-.07.4-.256.46-.49l8.366-32.997c.413-1.628 1.861-2.768 3.522-2.768h4.996c1.413 0 2.557 1.16 2.557 2.59q0 .324-.08.639l-13.692 54.46c-.41 1.63-1.86 2.774-3.523 2.774h-4.494a3.64 3.64 0 0 1-3.493-2.66l-10.464-36.604a.677.677 0 0 0-1.264-.107l-.047.13-10.457 36.582a3.64 3.64 0 0 1-3.492 2.659h-4.575c-1.665 0-3.116-1.146-3.525-2.78l-13.615-54.458c-.346-1.384.48-2.792 1.849-3.145a2.5 2.5 0 0 1 .63-.08zm189.89-98.379c7.54 9.312 6.104 22.974-3.208 30.515-9.312 7.54-22.974 6.105-30.514-3.207s-6.105-22.974 3.207-30.515c9.312-7.54 22.974-6.105 30.514 3.207m-283.71-3.207c9.313 7.54 10.749 21.203 3.208 30.515-7.54 9.312-21.202 10.747-30.514 3.207s-10.748-21.203-3.208-30.515c7.541-9.312 21.203-10.748 30.515-3.207M254 53.975c11.982 0 21.696 9.714 21.696 21.696S265.982 97.367 254 97.367s-21.696-9.714-21.696-21.696S242.018 53.975 254 53.975"/></g></svg>